<svg width="214" height="98" viewBox="0 0 214 98" fill="none" xmlns="http://www.w3.org/2000/svg">
<g style="mix-blend-mode:darken" filter="url(#filter0_d_79_43)">
<path d="M9 40V35H4V30H14V35H29V25H9V20H4V10H9V5H34V10H39V15H29V10H14V20H34V25H39V35H34V40H9ZM50.2 40V35H45.2V30H50.2V25H70.2V20H50.2V15H75.2V20H80.2V40H50.2ZM55.2 35H70.2V30H55.2V35ZM91.4 45V40H111.4V35H91.4V30H86.4V15H96.4V30H111.4V15H121.4V40H116.4V45H91.4ZM19 90V75H14V70H9V55H19V70H29V55H39V70H34V75H29V90H19ZM45.2 90V55H80.2V60H55.2V70H75.2V75H55.2V85H80.2V90H45.2ZM91.4 90V85H86.4V80H96.4V85H111.4V75H91.4V70H86.4V60H91.4V55H116.4V60H121.4V65H111.4V60H96.4V70H116.4V75H121.4V85H116.4V90H91.4ZM137.6 80V55H152.6V70H147.6V80H137.6ZM137.6 90V85H147.6V90H137.6Z" fill="#FF5CA8"/>
<path d="M9 40H8V41H9V40ZM9 35H10V34H9V35ZM4 35H3V36H4V35ZM4 30V29H3V30H4ZM14 30H15V29H14V30ZM14 35H13V36H14V35ZM29 35V36H30V35H29ZM29 25H30V24H29V25ZM9 25H8V26H9V25ZM9 20H10V19H9V20ZM4 20H3V21H4V20ZM4 10V9H3V10H4ZM9 10V11H10V10H9ZM9 5V4H8V5H9ZM34 5H35V4H34V5ZM34 10H33V11H34V10ZM39 10H40V9H39V10ZM39 15V16H40V15H39ZM29 15H28V16H29V15ZM29 10H30V9H29V10ZM14 10V9H13V10H14ZM14 20H13V21H14V20ZM34 20H35V19H34V20ZM34 25H33V26H34V25ZM39 25H40V24H39V25ZM39 35V36H40V35H39ZM34 35V34H33V35H34ZM34 40V41H35V40H34ZM10 40V35H8V40H10ZM9 34H4V36H9V34ZM5 35V30H3V35H5ZM4 31H14V29H4V31ZM13 30V35H15V30H13ZM14 36H29V34H14V36ZM30 35V25H28V35H30ZM29 24H9V26H29V24ZM10 25V20H8V25H10ZM9 19H4V21H9V19ZM5 20V10H3V20H5ZM4 11H9V9H4V11ZM10 10V5H8V10H10ZM9 6H34V4H9V6ZM33 5V10H35V5H33ZM34 11H39V9H34V11ZM38 10V15H40V10H38ZM39 14H29V16H39V14ZM30 15V10H28V15H30ZM29 9H14V11H29V9ZM13 10V20H15V10H13ZM14 21H34V19H14V21ZM33 20V25H35V20H33ZM34 26H39V24H34V26ZM38 25V35H40V25H38ZM39 34H34V36H39V34ZM33 35V40H35V35H33ZM34 39H9V41H34V39ZM50.2 40H49.2V41H50.2V40ZM50.2 35H51.2V34H50.2V35ZM45.2 35H44.2V36H45.2V35ZM45.2 30V29H44.2V30H45.2ZM50.2 30V31H51.2V30H50.2ZM50.2 25V24H49.2V25H50.2ZM70.2 25V26H71.2V25H70.2ZM70.2 20H71.2V19H70.2V20ZM50.2 20H49.2V21H50.2V20ZM50.2 15V14H49.2V15H50.2ZM75.2 15H76.2V14H75.2V15ZM75.2 20H74.2V21H75.2V20ZM80.2 20H81.2V19H80.2V20ZM80.2 40V41H81.2V40H80.2ZM55.2 35H54.2V36H55.2V35ZM70.2 35V36H71.2V35H70.2ZM70.2 30H71.2V29H70.2V30ZM55.2 30V29H54.2V30H55.2ZM51.2 40V35H49.2V40H51.2ZM50.2 34H45.2V36H50.2V34ZM46.2 35V30H44.2V35H46.2ZM45.2 31H50.2V29H45.2V31ZM51.2 30V25H49.2V30H51.2ZM50.2 26H70.2V24H50.2V26ZM71.2 25V20H69.2V25H71.2ZM70.2 19H50.2V21H70.2V19ZM51.2 20V15H49.2V20H51.2ZM50.2 16H75.2V14H50.2V16ZM74.2 15V20H76.2V15H74.2ZM75.2 21H80.2V19H75.2V21ZM79.2 20V40H81.2V20H79.2ZM80.2 39H50.2V41H80.2V39ZM55.2 36H70.2V34H55.2V36ZM71.2 35V30H69.2V35H71.2ZM70.2 29H55.2V31H70.2V29ZM54.2 30V35H56.2V30H54.2ZM91.4 45H90.4V46H91.4V45ZM91.4 40V39H90.4V40H91.4ZM111.4 40V41H112.4V40H111.4ZM111.4 35H112.4V34H111.4V35ZM91.4 35H90.4V36H91.4V35ZM91.4 30H92.4V29H91.4V30ZM86.4 30H85.4V31H86.4V30ZM86.4 15V14H85.4V15H86.4ZM96.4 15H97.4V14H96.4V15ZM96.4 30H95.4V31H96.4V30ZM111.4 30V31H112.4V30H111.4ZM111.4 15V14H110.4V15H111.4ZM121.4 15H122.4V14H121.4V15ZM121.4 40V41H122.4V40H121.4ZM116.4 40V39H115.4V40H116.4ZM116.4 45V46H117.4V45H116.4ZM92.4 45V40H90.4V45H92.4ZM91.4 41H111.4V39H91.4V41ZM112.4 40V35H110.4V40H112.4ZM111.4 34H91.4V36H111.4V34ZM92.4 35V30H90.4V35H92.4ZM91.4 29H86.4V31H91.4V29ZM87.4 30V15H85.4V30H87.4ZM86.4 16H96.4V14H86.4V16ZM95.4 15V30H97.4V15H95.4ZM96.4 31H111.4V29H96.4V31ZM112.4 30V15H110.4V30H112.4ZM111.4 16H121.4V14H111.4V16ZM120.4 15V40H122.4V15H120.4ZM121.4 39H116.4V41H121.4V39ZM115.4 40V45H117.4V40H115.4ZM116.4 44H91.4V46H116.4V44ZM19 90H18V91H19V90ZM19 75H20V74H19V75ZM14 75H13V76H14V75ZM14 70H15V69H14V70ZM9 70H8V71H9V70ZM9 55V54H8V55H9ZM19 55H20V54H19V55ZM19 70H18V71H19V70ZM29 70V71H30V70H29ZM29 55V54H28V55H29ZM39 55H40V54H39V55ZM39 70V71H40V70H39ZM34 70V69H33V70H34ZM34 75V76H35V75H34ZM29 75V74H28V75H29ZM29 90V91H30V90H29ZM20 90V75H18V90H20ZM19 74H14V76H19V74ZM15 75V70H13V75H15ZM14 69H9V71H14V69ZM10 70V55H8V70H10ZM9 56H19V54H9V56ZM18 55V70H20V55H18ZM19 71H29V69H19V71ZM30 70V55H28V70H30ZM29 56H39V54H29V56ZM38 55V70H40V55H38ZM39 69H34V71H39V69ZM33 70V75H35V70H33ZM34 74H29V76H34V74ZM28 75V90H30V75H28ZM29 89H19V91H29V89ZM45.2 90H44.2V91H45.2V90ZM45.2 55V54H44.2V55H45.2ZM80.2 55H81.2V54H80.2V55ZM80.2 60V61H81.2V60H80.2ZM55.2 60V59H54.2V60H55.2ZM55.2 70H54.2V71H55.2V70ZM75.2 70H76.2V69H75.2V70ZM75.2 75V76H76.2V75H75.2ZM55.2 75V74H54.2V75H55.2ZM55.2 85H54.2V86H55.2V85ZM80.2 85H81.2V84H80.2V85ZM80.2 90V91H81.2V90H80.2ZM46.2 90V55H44.2V90H46.2ZM45.2 56H80.2V54H45.2V56ZM79.2 55V60H81.2V55H79.2ZM80.2 59H55.2V61H80.2V59ZM54.2 60V70H56.2V60H54.2ZM55.2 71H75.2V69H55.2V71ZM74.2 70V75H76.2V70H74.2ZM75.2 74H55.2V76H75.2V74ZM54.2 75V85H56.2V75H54.2ZM55.2 86H80.2V84H55.2V86ZM79.2 85V90H81.2V85H79.2ZM80.2 89H45.2V91H80.2V89ZM91.4 90H90.4V91H91.4V90ZM91.4 85H92.4V84H91.4V85ZM86.4 85H85.4V86H86.4V85ZM86.4 80V79H85.4V80H86.4ZM96.4 80H97.4V79H96.4V80ZM96.4 85H95.4V86H96.4V85ZM111.4 85V86H112.4V85H111.4ZM111.4 75H112.4V74H111.4V75ZM91.4 75H90.4V76H91.4V75ZM91.4 70H92.4V69H91.4V70ZM86.4 70H85.4V71H86.4V70ZM86.4 60V59H85.4V60H86.4ZM91.4 60V61H92.4V60H91.4ZM91.4 55V54H90.4V55H91.4ZM116.4 55H117.4V54H116.4V55ZM116.4 60H115.4V61H116.4V60ZM121.4 60H122.4V59H121.4V60ZM121.4 65V66H122.4V65H121.4ZM111.4 65H110.4V66H111.4V65ZM111.4 60H112.4V59H111.4V60ZM96.4 60V59H95.4V60H96.4ZM96.4 70H95.4V71H96.4V70ZM116.4 70H117.4V69H116.4V70ZM116.4 75H115.4V76H116.4V75ZM121.4 75H122.4V74H121.4V75ZM121.4 85V86H122.4V85H121.4ZM116.4 85V84H115.4V85H116.4ZM116.4 90V91H117.4V90H116.4ZM92.4 90V85H90.4V90H92.4ZM91.4 84H86.4V86H91.4V84ZM87.4 85V80H85.4V85H87.4ZM86.4 81H96.4V79H86.4V81ZM95.4 80V85H97.4V80H95.4ZM96.4 86H111.4V84H96.4V86ZM112.4 85V75H110.4V85H112.4ZM111.4 74H91.4V76H111.4V74ZM92.4 75V70H90.4V75H92.4ZM91.4 69H86.4V71H91.4V69ZM87.4 70V60H85.4V70H87.4ZM86.4 61H91.4V59H86.4V61ZM92.4 60V55H90.4V60H92.4ZM91.4 56H116.4V54H91.4V56ZM115.4 55V60H117.4V55H115.4ZM116.4 61H121.4V59H116.4V61ZM120.4 60V65H122.4V60H120.4ZM121.4 64H111.4V66H121.4V64ZM112.4 65V60H110.4V65H112.4ZM111.4 59H96.4V61H111.4V59ZM95.4 60V70H97.4V60H95.4ZM96.4 71H116.4V69H96.4V71ZM115.4 70V75H117.4V70H115.4ZM116.4 76H121.4V74H116.4V76ZM120.4 75V85H122.4V75H120.4ZM121.4 84H116.4V86H121.4V84ZM115.4 85V90H117.4V85H115.4ZM116.4 89H91.4V91H116.4V89ZM137.6 80H136.6V81H137.6V80ZM137.6 55V54H136.6V55H137.6ZM152.6 55H153.6V54H152.6V55ZM152.6 70V71H153.6V70H152.6ZM147.6 70V69H146.6V70H147.6ZM147.6 80V81H148.6V80H147.6ZM137.6 90H136.6V91H137.6V90ZM137.6 85V84H136.6V85H137.6ZM147.6 85H148.6V84H147.6V85ZM147.6 90V91H148.6V90H147.6ZM138.6 80V55H136.6V80H138.6ZM137.6 56H152.6V54H137.6V56ZM151.6 55V70H153.6V55H151.6ZM152.6 69H147.6V71H152.6V69ZM146.6 70V80H148.6V70H146.6ZM147.6 79H137.6V81H147.6V79ZM138.6 90V85H136.6V90H138.6ZM137.6 86H147.6V84H137.6V86ZM146.6 85V90H148.6V85H146.6ZM147.6 89H137.6V91H147.6V89Z" fill="black"/>
</g>
<defs>
<filter id="filter0_d_79_43" x="0" y="5" width="156.6" height="93" filterUnits="userSpaceOnUse" color-interpolation-filters="sRGB">
<feFlood flood-opacity="0" result="BackgroundImageFix"/>
<feColorMatrix in="SourceAlpha" type="matrix" values="0 0 0 0 0 0 0 0 0 0 0 0 0 0 0 0 0 0 127 0" result="hardAlpha"/>
<feOffset dy="4"/>
<feGaussianBlur stdDeviation="2"/>
<feComposite in2="hardAlpha" operator="out"/>
<feColorMatrix type="matrix" values="0 0 0 0 0 0 0 0 0 0 0 0 0 0 0 0 0 0 0.25 0"/>
<feBlend mode="normal" in2="BackgroundImageFix" result="effect1_dropShadow_79_43"/>
<feBlend mode="normal" in="SourceGraphic" in2="effect1_dropShadow_79_43" result="shape"/>
</filter>
</defs>
</svg>
