<svg width="169" height="93" viewBox="0 0 169 93" fill="none" xmlns="http://www.w3.org/2000/svg">
<path d="M10.4491 9.93084C17.4892 4.81151 21.2251 4.06537 29.7103 4.80105C36.5237 5.39178 43.054 6.81832 49.712 8.31283C59.0814 10.4159 68.0314 16.0394 76.611 20.1459C84.0532 23.7079 90.4416 28.5952 97.375 32.8474C111.121 41.2778 124.042 53.1216 134.395 65.4242C139.518 71.5113 145.249 77.2891 150.053 83.6078C151.664 85.7265 155.177 88.9762 155.79 91.4513" stroke="#FFD380" stroke-opacity="0.9" stroke-width="3" stroke-linecap="round"/>
<path d="M156.407 71.6685C156.927 73.1321 156.377 74.9737 156.373 76.4871C156.37 77.8767 156.324 79.3029 156.341 80.7121C156.365 82.8016 156.292 84.9109 156.376 87.0231C156.415 87.9997 156.752 89.3186 156.54 90.261" stroke="#FFD380" stroke-opacity="0.9" stroke-width="3" stroke-linecap="round"/>
<path d="M135 89C137.66 89 140.238 89.781 142.889 89.8694C144.2 89.9131 145.532 90.2017 146.833 90.3765C147.9 90.5198 148.999 90.4639 150.053 90.6261C151.581 90.8611 153.128 90.8836 154.674 90.8836C155.257 90.8836 155.865 91.1734 156.445 91.1734" stroke="#FFD380" stroke-opacity="0.9" stroke-width="3" stroke-linecap="round"/>
</svg>
